<svg height="19" viewBox="0 0 21 19" width="21" xmlns="http://www.w3.org/2000/svg"><path d="m335.118262 268.694857.222649-.694857h1.65972c1.65655 0 2.999369-1.343068 2.999369-3.00002v-6.99996c0-1.654696-1.344274-3.00002-2.999369-3.00002h-13.001262c-1.65655 0-2.999369 1.343068-2.999369 3.00002v6.99996c0 1.654696 1.344274 3.00002 2.999369 3.00002h8.434142l.271186.570984c.617343 1.299821 1.306754 2.300148 2.003108 2.876286-.03292-.910921.116396-1.834696.410457-2.752413zm.881738 4.305143c-1.926148 0-3.369767-2.254885-4.1986-4h-7.802031c-2.20879 0-3.999369-1.794451-3.999369-4.00002v-6.99996c0-2.20915 1.790448-4.00002 3.999369-4.00002h13.001262c2.20879 0 3.999369 1.794451 3.999369 4.00002v6.99996c0 2.20915-1.790448 4.00002-3.999369 4.00002h-.930063c-.355605 1.109788-.569387 2.554894-.070568 4zm-5.5-14.658898c-.132455-.243192-.36581-.490316-.700067-.741372-.501385-.376583-1.124599-.59973-1.799933-.59973-1.656854 0-3 1.343146-3 3 0 2.656854 5.094251 5.997596 5.5 5.997596s5.5-3.340742 5.5-5.997596c0-1.656854-1.343146-3-3-3-.675334 0-1.349738.241399-1.799933.59973-.300131.238888-.533486.486012-.700067.741372zm.477709 6.259703c-.177788.117953-.340981.21989-.477709.299287-.136728-.079397-.299921-.181334-.477709-.299287-.565626-.375262-1.19198-.852351-1.763205-1.355859-1.409424-1.242342-2.259086-2.44823-2.259086-3.244946 0-1.104569.895431-2 2-2 .678621 0 1.229414.38113 1.667267.894777.291901.342431.569479.759912.832733 1.252441.266595-.502893.544173-.920374.832733-1.252441.432841-.498101.988646-.894777 1.667267-.894777 1.104569 0 2 .895431 2 2 0 .796716-.849662 2.002604-2.259086 3.244946-.571225.503508-1.197579.980597-1.763205 1.355859z" transform="translate(-320 -254)"/></svg>